<mxfile host="65bd71144e">
    <diagram id="t6kBSl9eU-mzRL5bnRqJ" name="Page-1">
        <mxGraphModel dx="1898" dy="1237" grid="1" gridSize="10" guides="1" tooltips="1" connect="1" arrows="1" fold="1" page="1" pageScale="1" pageWidth="850" pageHeight="1100" math="0" shadow="0">
            <root>
                <mxCell id="0"/>
                <mxCell id="1" parent="0"/>
                <mxCell id="y9aLx4mtc0Bel44x6x2t-5" value="&lt;span style=&quot;font-size: 18px;&quot;&gt;Admin&lt;/span&gt;" style="rounded=0;whiteSpace=wrap;html=1;" vertex="1" parent="1">
                    <mxGeometry x="100" y="70" width="120" height="60" as="geometry"/>
                </mxCell>
                <mxCell id="y9aLx4mtc0Bel44x6x2t-7" value="" style="endArrow=classic;html=1;fontSize=18;exitX=0.5;exitY=1;exitDx=0;exitDy=0;" edge="1" parent="1">
                    <mxGeometry width="50" height="50" relative="1" as="geometry">
                        <mxPoint x="160" y="130" as="sourcePoint"/>
                        <mxPoint x="160" y="200" as="targetPoint"/>
                    </mxGeometry>
                </mxCell>
                <mxCell id="y9aLx4mtc0Bel44x6x2t-8" value="Forgot Pasword" style="ellipse;whiteSpace=wrap;html=1;aspect=fixed;fontSize=18;" vertex="1" parent="1">
                    <mxGeometry x="100" y="200" width="120" height="120" as="geometry"/>
                </mxCell>
                <mxCell id="y9aLx4mtc0Bel44x6x2t-10" value="" style="endArrow=classic;html=1;fontSize=18;exitX=0.5;exitY=1;exitDx=0;exitDy=0;" edge="1" parent="1" source="y9aLx4mtc0Bel44x6x2t-8">
                    <mxGeometry width="50" height="50" relative="1" as="geometry">
                        <mxPoint x="380" y="300" as="sourcePoint"/>
                        <mxPoint x="160" y="400" as="targetPoint"/>
                    </mxGeometry>
                </mxCell>
                <mxCell id="y9aLx4mtc0Bel44x6x2t-11" value="Send Email to User&lt;span style=&quot;&quot;&gt;&#9;&lt;/span&gt;" style="ellipse;whiteSpace=wrap;html=1;aspect=fixed;fontSize=18;" vertex="1" parent="1">
                    <mxGeometry x="100" y="400" width="120" height="120" as="geometry"/>
                </mxCell>
                <mxCell id="y9aLx4mtc0Bel44x6x2t-14" value="Login to system" style="ellipse;whiteSpace=wrap;html=1;aspect=fixed;fontSize=18;" vertex="1" parent="1">
                    <mxGeometry x="320" y="40" width="120" height="120" as="geometry"/>
                </mxCell>
                <mxCell id="y9aLx4mtc0Bel44x6x2t-15" value="" style="endArrow=classic;html=1;fontSize=18;exitX=1;exitY=0.5;exitDx=0;exitDy=0;" edge="1" parent="1">
                    <mxGeometry width="50" height="50" relative="1" as="geometry">
                        <mxPoint x="220" y="100" as="sourcePoint"/>
                        <mxPoint x="320" y="100" as="targetPoint"/>
                    </mxGeometry>
                </mxCell>
                <mxCell id="y9aLx4mtc0Bel44x6x2t-17" value="" style="endArrow=classic;html=1;fontSize=18;exitX=0.5;exitY=1;exitDx=0;exitDy=0;" edge="1" parent="1" source="y9aLx4mtc0Bel44x6x2t-14" target="y9aLx4mtc0Bel44x6x2t-18">
                    <mxGeometry width="50" height="50" relative="1" as="geometry">
                        <mxPoint x="380" y="250" as="sourcePoint"/>
                        <mxPoint x="380" y="240" as="targetPoint"/>
                    </mxGeometry>
                </mxCell>
                <mxCell id="y9aLx4mtc0Bel44x6x2t-18" value="Check credentials&amp;nbsp;" style="ellipse;whiteSpace=wrap;html=1;aspect=fixed;fontSize=18;" vertex="1" parent="1">
                    <mxGeometry x="322.5" y="245" width="115" height="115" as="geometry"/>
                </mxCell>
                <mxCell id="y9aLx4mtc0Bel44x6x2t-20" value="" style="endArrow=classic;html=1;fontSize=18;exitX=1;exitY=0;exitDx=0;exitDy=0;" edge="1" parent="1" source="y9aLx4mtc0Bel44x6x2t-18" target="y9aLx4mtc0Bel44x6x2t-21">
                    <mxGeometry width="50" height="50" relative="1" as="geometry">
                        <mxPoint x="480" y="150" as="sourcePoint"/>
                        <mxPoint x="500" y="170" as="targetPoint"/>
                    </mxGeometry>
                </mxCell>
                <mxCell id="y9aLx4mtc0Bel44x6x2t-21" value="Check roles of access" style="ellipse;whiteSpace=wrap;html=1;aspect=fixed;fontSize=18;" vertex="1" parent="1">
                    <mxGeometry x="500" y="40" width="120" height="120" as="geometry"/>
                </mxCell>
                <mxCell id="y9aLx4mtc0Bel44x6x2t-24" value="" style="endArrow=classic;html=1;fontSize=18;exitX=0.5;exitY=1;exitDx=0;exitDy=0;" edge="1" parent="1" source="y9aLx4mtc0Bel44x6x2t-21">
                    <mxGeometry width="50" height="50" relative="1" as="geometry">
                        <mxPoint x="380" y="300" as="sourcePoint"/>
                        <mxPoint x="560" y="240" as="targetPoint"/>
                    </mxGeometry>
                </mxCell>
                <mxCell id="y9aLx4mtc0Bel44x6x2t-38" style="edgeStyle=none;html=1;exitX=0.973;exitY=0.347;exitDx=0;exitDy=0;entryX=0;entryY=0.5;entryDx=0;entryDy=0;fontSize=18;exitPerimeter=0;" edge="1" parent="1" source="y9aLx4mtc0Bel44x6x2t-25" target="y9aLx4mtc0Bel44x6x2t-36">
                    <mxGeometry relative="1" as="geometry"/>
                </mxCell>
                <mxCell id="y9aLx4mtc0Bel44x6x2t-41" style="edgeStyle=none;html=1;exitX=1;exitY=0.5;exitDx=0;exitDy=0;entryX=0;entryY=0.5;entryDx=0;entryDy=0;fontSize=18;" edge="1" parent="1" source="y9aLx4mtc0Bel44x6x2t-25" target="y9aLx4mtc0Bel44x6x2t-39">
                    <mxGeometry relative="1" as="geometry"/>
                </mxCell>
                <mxCell id="y9aLx4mtc0Bel44x6x2t-54" style="edgeStyle=none;html=1;exitX=1;exitY=1;exitDx=0;exitDy=0;entryX=0;entryY=0.5;entryDx=0;entryDy=0;fontSize=18;" edge="1" parent="1" source="y9aLx4mtc0Bel44x6x2t-25" target="y9aLx4mtc0Bel44x6x2t-52">
                    <mxGeometry relative="1" as="geometry"/>
                </mxCell>
                <mxCell id="y9aLx4mtc0Bel44x6x2t-56" style="edgeStyle=none;html=1;exitX=0.662;exitY=0.978;exitDx=0;exitDy=0;entryX=0;entryY=0.5;entryDx=0;entryDy=0;fontSize=18;exitPerimeter=0;" edge="1" parent="1" source="y9aLx4mtc0Bel44x6x2t-25" target="y9aLx4mtc0Bel44x6x2t-55">
                    <mxGeometry relative="1" as="geometry"/>
                </mxCell>
                <mxCell id="y9aLx4mtc0Bel44x6x2t-25" value="Manage modules" style="ellipse;whiteSpace=wrap;html=1;aspect=fixed;fontSize=18;" vertex="1" parent="1">
                    <mxGeometry x="500" y="240" width="120" height="120" as="geometry"/>
                </mxCell>
                <mxCell id="y9aLx4mtc0Bel44x6x2t-27" value="" style="endArrow=classic;html=1;fontSize=18;exitX=1;exitY=0;exitDx=0;exitDy=0;" edge="1" parent="1" source="y9aLx4mtc0Bel44x6x2t-25">
                    <mxGeometry width="50" height="50" relative="1" as="geometry">
                        <mxPoint x="250" y="190" as="sourcePoint"/>
                        <mxPoint x="720" y="80" as="targetPoint"/>
                    </mxGeometry>
                </mxCell>
                <mxCell id="y9aLx4mtc0Bel44x6x2t-45" style="edgeStyle=none;html=1;exitX=1;exitY=0.5;exitDx=0;exitDy=0;entryX=0;entryY=0.5;entryDx=0;entryDy=0;fontSize=18;" edge="1" parent="1" source="y9aLx4mtc0Bel44x6x2t-28" target="y9aLx4mtc0Bel44x6x2t-44">
                    <mxGeometry relative="1" as="geometry"/>
                </mxCell>
                <mxCell id="y9aLx4mtc0Bel44x6x2t-28" value="Manage&amp;nbsp; Blog Details" style="rounded=0;whiteSpace=wrap;html=1;fontSize=18;" vertex="1" parent="1">
                    <mxGeometry x="720" y="70" width="300" height="60" as="geometry"/>
                </mxCell>
                <mxCell id="y9aLx4mtc0Bel44x6x2t-31" value="" style="endArrow=classic;html=1;fontSize=18;exitX=0.922;exitY=0.216;exitDx=0;exitDy=0;exitPerimeter=0;entryX=0;entryY=0.5;entryDx=0;entryDy=0;" edge="1" parent="1" source="y9aLx4mtc0Bel44x6x2t-25" target="y9aLx4mtc0Bel44x6x2t-33">
                    <mxGeometry width="50" height="50" relative="1" as="geometry">
                        <mxPoint x="510" y="140" as="sourcePoint"/>
                        <mxPoint x="720" y="140" as="targetPoint"/>
                    </mxGeometry>
                </mxCell>
                <mxCell id="y9aLx4mtc0Bel44x6x2t-48" style="edgeStyle=none;html=1;exitX=1;exitY=0.5;exitDx=0;exitDy=0;entryX=0;entryY=0.5;entryDx=0;entryDy=0;fontSize=18;" edge="1" parent="1" source="y9aLx4mtc0Bel44x6x2t-33" target="y9aLx4mtc0Bel44x6x2t-47">
                    <mxGeometry relative="1" as="geometry"/>
                </mxCell>
                <mxCell id="y9aLx4mtc0Bel44x6x2t-33" value="Manage Create Blog Details" style="rounded=0;whiteSpace=wrap;html=1;fontSize=18;" vertex="1" parent="1">
                    <mxGeometry x="720" y="160" width="300" height="60" as="geometry"/>
                </mxCell>
                <mxCell id="y9aLx4mtc0Bel44x6x2t-50" style="edgeStyle=none;html=1;exitX=1;exitY=0.5;exitDx=0;exitDy=0;entryX=0;entryY=0.5;entryDx=0;entryDy=0;fontSize=18;" edge="1" parent="1" source="y9aLx4mtc0Bel44x6x2t-36" target="y9aLx4mtc0Bel44x6x2t-49">
                    <mxGeometry relative="1" as="geometry"/>
                </mxCell>
                <mxCell id="y9aLx4mtc0Bel44x6x2t-36" value="Manage Web Page Details" style="rounded=0;whiteSpace=wrap;html=1;fontSize=18;" vertex="1" parent="1">
                    <mxGeometry x="720" y="250" width="300" height="60" as="geometry"/>
                </mxCell>
                <mxCell id="y9aLx4mtc0Bel44x6x2t-39" value="Manage Comment Details" style="rounded=0;whiteSpace=wrap;html=1;fontSize=18;" vertex="1" parent="1">
                    <mxGeometry x="720" y="330" width="300" height="60" as="geometry"/>
                </mxCell>
                <mxCell id="y9aLx4mtc0Bel44x6x2t-44" value="Author, Date,Place" style="rounded=0;whiteSpace=wrap;html=1;fontSize=18;" vertex="1" parent="1">
                    <mxGeometry x="1090" y="70" width="220" height="60" as="geometry"/>
                </mxCell>
                <mxCell id="y9aLx4mtc0Bel44x6x2t-47" value="Category, Title, Body,Images" style="rounded=0;whiteSpace=wrap;html=1;fontSize=18;" vertex="1" parent="1">
                    <mxGeometry x="1090" y="160" width="220" height="60" as="geometry"/>
                </mxCell>
                <mxCell id="y9aLx4mtc0Bel44x6x2t-49" value="Appearance, Hyperlinks" style="rounded=0;whiteSpace=wrap;html=1;fontSize=18;" vertex="1" parent="1">
                    <mxGeometry x="1090" y="250" width="220" height="60" as="geometry"/>
                </mxCell>
                <mxCell id="y9aLx4mtc0Bel44x6x2t-63" style="edgeStyle=none;html=1;exitX=1;exitY=0.5;exitDx=0;exitDy=0;entryX=0;entryY=0.5;entryDx=0;entryDy=0;fontSize=18;" edge="1" parent="1" source="y9aLx4mtc0Bel44x6x2t-52" target="y9aLx4mtc0Bel44x6x2t-62">
                    <mxGeometry relative="1" as="geometry"/>
                </mxCell>
                <mxCell id="y9aLx4mtc0Bel44x6x2t-52" value="Manage Reports" style="rounded=0;whiteSpace=wrap;html=1;fontSize=18;" vertex="1" parent="1">
                    <mxGeometry x="720" y="430" width="300" height="60" as="geometry"/>
                </mxCell>
                <mxCell id="y9aLx4mtc0Bel44x6x2t-65" style="edgeStyle=none;html=1;exitX=1;exitY=0.5;exitDx=0;exitDy=0;entryX=0;entryY=0.5;entryDx=0;entryDy=0;fontSize=18;" edge="1" parent="1" source="y9aLx4mtc0Bel44x6x2t-55" target="y9aLx4mtc0Bel44x6x2t-64">
                    <mxGeometry relative="1" as="geometry"/>
                </mxCell>
                <mxCell id="y9aLx4mtc0Bel44x6x2t-55" value="Manage User Permissions" style="rounded=0;whiteSpace=wrap;html=1;fontSize=18;" vertex="1" parent="1">
                    <mxGeometry x="720" y="520" width="300" height="60" as="geometry"/>
                </mxCell>
                <mxCell id="y9aLx4mtc0Bel44x6x2t-59" value="Anyone can comment, polls,like comments" style="rounded=0;whiteSpace=wrap;html=1;fontSize=18;" vertex="1" parent="1">
                    <mxGeometry x="1090" y="330" width="220" height="60" as="geometry"/>
                </mxCell>
                <mxCell id="y9aLx4mtc0Bel44x6x2t-62" value="No of likes, reads, comments" style="rounded=0;whiteSpace=wrap;html=1;fontSize=18;" vertex="1" parent="1">
                    <mxGeometry x="1090" y="430" width="210" height="60" as="geometry"/>
                </mxCell>
                <mxCell id="y9aLx4mtc0Bel44x6x2t-64" value="View ,like and comment" style="rounded=0;whiteSpace=wrap;html=1;fontSize=18;" vertex="1" parent="1">
                    <mxGeometry x="1090" y="520" width="210" height="60" as="geometry"/>
                </mxCell>
                <mxCell id="y9aLx4mtc0Bel44x6x2t-66" value="" style="endArrow=none;dashed=1;html=1;fontSize=18;" edge="1" parent="1">
                    <mxGeometry width="50" height="50" relative="1" as="geometry">
                        <mxPoint x="80" y="680" as="sourcePoint"/>
                        <mxPoint x="1631.3334147135417" y="680" as="targetPoint"/>
                    </mxGeometry>
                </mxCell>
            </root>
        </mxGraphModel>
    </diagram>
    <diagram id="CmZ3ZNybgTyywo_4qXpF" name="Page-2">
        <mxGraphModel dx="1898" dy="2337" grid="1" gridSize="10" guides="1" tooltips="1" connect="1" arrows="1" fold="1" page="1" pageScale="1" pageWidth="850" pageHeight="1100" math="0" shadow="0">
            <root>
                <mxCell id="0"/>
                <mxCell id="1" parent="0"/>
                <mxCell id="S6JoBW-ktSKsNF5E6PWc-4" value="" style="rounded=0;whiteSpace=wrap;html=1;fontSize=18;" vertex="1" parent="1">
                    <mxGeometry x="20" y="-40" width="810" height="1320" as="geometry"/>
                </mxCell>
                <mxCell id="S6JoBW-ktSKsNF5E6PWc-6" value="" style="rounded=1;whiteSpace=wrap;html=1;fontSize=18;" vertex="1" parent="1">
                    <mxGeometry x="40" y="150" width="140" height="840" as="geometry"/>
                </mxCell>
                <mxCell id="S6JoBW-ktSKsNF5E6PWc-7" value="Home" style="rounded=0;whiteSpace=wrap;html=1;fontSize=18;" vertex="1" parent="1">
                    <mxGeometry x="50" y="190" width="120" height="50" as="geometry"/>
                </mxCell>
                <mxCell id="S6JoBW-ktSKsNF5E6PWc-8" value="Local News" style="rounded=0;whiteSpace=wrap;html=1;fontSize=18;" vertex="1" parent="1">
                    <mxGeometry x="50" y="320" width="120" height="60" as="geometry"/>
                </mxCell>
                <mxCell id="S6JoBW-ktSKsNF5E6PWc-9" value="Editorials" style="rounded=0;whiteSpace=wrap;html=1;fontSize=18;" vertex="1" parent="1">
                    <mxGeometry x="50" y="390" width="120" height="60" as="geometry"/>
                </mxCell>
                <mxCell id="S6JoBW-ktSKsNF5E6PWc-10" value="Tournamets" style="rounded=0;whiteSpace=wrap;html=1;fontSize=18;" vertex="1" parent="1">
                    <mxGeometry x="50" y="250" width="120" height="60" as="geometry"/>
                </mxCell>
                <mxCell id="S6JoBW-ktSKsNF5E6PWc-11" value="Polls" style="rounded=0;whiteSpace=wrap;html=1;fontSize=18;" vertex="1" parent="1">
                    <mxGeometry x="50" y="460" width="120" height="60" as="geometry"/>
                </mxCell>
                <mxCell id="S6JoBW-ktSKsNF5E6PWc-14" value="" style="rounded=0;whiteSpace=wrap;html=1;fontSize=18;" vertex="1" parent="1">
                    <mxGeometry x="200" y="150" width="620" height="850" as="geometry"/>
                </mxCell>
                <mxCell id="S6JoBW-ktSKsNF5E6PWc-15" value="Recent&lt;span style=&quot;white-space: pre;&quot;&gt;&#9;&lt;/span&gt;" style="rounded=1;whiteSpace=wrap;html=1;fontSize=18;" vertex="1" parent="1">
                    <mxGeometry x="240" y="170" width="120" height="60" as="geometry"/>
                </mxCell>
                <mxCell id="S6JoBW-ktSKsNF5E6PWc-16" value="This Week" style="rounded=1;whiteSpace=wrap;html=1;fontSize=18;" vertex="1" parent="1">
                    <mxGeometry x="375" y="170" width="120" height="60" as="geometry"/>
                </mxCell>
                <mxCell id="S6JoBW-ktSKsNF5E6PWc-17" value="Upcoming" style="rounded=1;whiteSpace=wrap;html=1;fontSize=18;" vertex="1" parent="1">
                    <mxGeometry x="510" y="170" width="120" height="60" as="geometry"/>
                </mxCell>
                <mxCell id="S6JoBW-ktSKsNF5E6PWc-18" value="Most Popular" style="rounded=1;whiteSpace=wrap;html=1;fontSize=18;" vertex="1" parent="1">
                    <mxGeometry x="640" y="170" width="120" height="60" as="geometry"/>
                </mxCell>
                <mxCell id="S6JoBW-ktSKsNF5E6PWc-19" value="info in short&amp;nbsp;" style="rounded=0;whiteSpace=wrap;html=1;fontSize=18;" vertex="1" parent="1">
                    <mxGeometry x="250" y="260" width="480" height="140" as="geometry"/>
                </mxCell>
                <mxCell id="S6JoBW-ktSKsNF5E6PWc-20" value="" style="rounded=0;whiteSpace=wrap;html=1;fontSize=18;" vertex="1" parent="1">
                    <mxGeometry x="250" y="430" width="480" height="140" as="geometry"/>
                </mxCell>
                <mxCell id="S6JoBW-ktSKsNF5E6PWc-21" value="" style="rounded=0;whiteSpace=wrap;html=1;fontSize=18;" vertex="1" parent="1">
                    <mxGeometry x="250" y="600" width="480" height="140" as="geometry"/>
                </mxCell>
                <mxCell id="S6JoBW-ktSKsNF5E6PWc-22" value="" style="rounded=0;whiteSpace=wrap;html=1;fontSize=18;" vertex="1" parent="1">
                    <mxGeometry x="250" y="770" width="480" height="140" as="geometry"/>
                </mxCell>
                <mxCell id="S6JoBW-ktSKsNF5E6PWc-23" value="Blog title" style="rounded=0;whiteSpace=wrap;html=1;fontSize=18;" vertex="1" parent="1">
                    <mxGeometry x="260" y="270" width="450" height="30" as="geometry"/>
                </mxCell>
                <mxCell id="S6JoBW-ktSKsNF5E6PWc-24" value="Read more.." style="rounded=0;whiteSpace=wrap;html=1;fontSize=18;" vertex="1" parent="1">
                    <mxGeometry x="620" y="380" width="110" height="20" as="geometry"/>
                </mxCell>
                <mxCell id="S6JoBW-ktSKsNF5E6PWc-25" value="Views,comments,Likes" style="rounded=0;whiteSpace=wrap;html=1;fontSize=18;" vertex="1" parent="1">
                    <mxGeometry x="250" y="380" width="190" height="20" as="geometry"/>
                </mxCell>
                <mxCell id="S6JoBW-ktSKsNF5E6PWc-36" value="info in short&amp;nbsp;" style="rounded=0;whiteSpace=wrap;html=1;fontSize=18;" vertex="1" parent="1">
                    <mxGeometry x="250" y="430" width="480" height="140" as="geometry"/>
                </mxCell>
                <mxCell id="S6JoBW-ktSKsNF5E6PWc-37" value="info in short&amp;nbsp;" style="rounded=0;whiteSpace=wrap;html=1;fontSize=18;" vertex="1" parent="1">
                    <mxGeometry x="250" y="600" width="480" height="140" as="geometry"/>
                </mxCell>
                <mxCell id="S6JoBW-ktSKsNF5E6PWc-38" value="info in short&amp;nbsp;" style="rounded=0;whiteSpace=wrap;html=1;fontSize=18;" vertex="1" parent="1">
                    <mxGeometry x="250" y="770" width="480" height="140" as="geometry"/>
                </mxCell>
                <mxCell id="S6JoBW-ktSKsNF5E6PWc-39" value="Views,comments,Likes" style="rounded=0;whiteSpace=wrap;html=1;fontSize=18;" vertex="1" parent="1">
                    <mxGeometry x="250" y="550" width="190" height="20" as="geometry"/>
                </mxCell>
                <mxCell id="S6JoBW-ktSKsNF5E6PWc-43" value="info in short&amp;nbsp;" style="rounded=0;whiteSpace=wrap;html=1;fontSize=18;" vertex="1" parent="1">
                    <mxGeometry x="250" y="430" width="480" height="140" as="geometry"/>
                </mxCell>
                <mxCell id="S6JoBW-ktSKsNF5E6PWc-44" value="Blog title" style="rounded=0;whiteSpace=wrap;html=1;fontSize=18;" vertex="1" parent="1">
                    <mxGeometry x="260" y="440" width="450" height="30" as="geometry"/>
                </mxCell>
                <mxCell id="S6JoBW-ktSKsNF5E6PWc-45" value="Read more.." style="rounded=0;whiteSpace=wrap;html=1;fontSize=18;" vertex="1" parent="1">
                    <mxGeometry x="620" y="550" width="110" height="20" as="geometry"/>
                </mxCell>
                <mxCell id="S6JoBW-ktSKsNF5E6PWc-46" value="Views,comments,Likes" style="rounded=0;whiteSpace=wrap;html=1;fontSize=18;" vertex="1" parent="1">
                    <mxGeometry x="250" y="550" width="190" height="20" as="geometry"/>
                </mxCell>
                <mxCell id="S6JoBW-ktSKsNF5E6PWc-47" value="info in short&amp;nbsp;" style="rounded=0;whiteSpace=wrap;html=1;fontSize=18;" vertex="1" parent="1">
                    <mxGeometry x="250" y="600" width="480" height="140" as="geometry"/>
                </mxCell>
                <mxCell id="S6JoBW-ktSKsNF5E6PWc-48" value="Blog title" style="rounded=0;whiteSpace=wrap;html=1;fontSize=18;" vertex="1" parent="1">
                    <mxGeometry x="260" y="610" width="450" height="30" as="geometry"/>
                </mxCell>
                <mxCell id="S6JoBW-ktSKsNF5E6PWc-49" value="Read more.." style="rounded=0;whiteSpace=wrap;html=1;fontSize=18;" vertex="1" parent="1">
                    <mxGeometry x="620" y="720" width="110" height="20" as="geometry"/>
                </mxCell>
                <mxCell id="S6JoBW-ktSKsNF5E6PWc-50" value="Views,comments,Likes" style="rounded=0;whiteSpace=wrap;html=1;fontSize=18;" vertex="1" parent="1">
                    <mxGeometry x="250" y="720" width="190" height="20" as="geometry"/>
                </mxCell>
                <mxCell id="S6JoBW-ktSKsNF5E6PWc-51" value="info in short&amp;nbsp;" style="rounded=0;whiteSpace=wrap;html=1;fontSize=18;" vertex="1" parent="1">
                    <mxGeometry x="250" y="770" width="480" height="140" as="geometry"/>
                </mxCell>
                <mxCell id="S6JoBW-ktSKsNF5E6PWc-52" value="Blog title" style="rounded=0;whiteSpace=wrap;html=1;fontSize=18;" vertex="1" parent="1">
                    <mxGeometry x="260" y="780" width="450" height="30" as="geometry"/>
                </mxCell>
                <mxCell id="S6JoBW-ktSKsNF5E6PWc-53" value="Read more.." style="rounded=0;whiteSpace=wrap;html=1;fontSize=18;" vertex="1" parent="1">
                    <mxGeometry x="620" y="890" width="110" height="20" as="geometry"/>
                </mxCell>
                <mxCell id="S6JoBW-ktSKsNF5E6PWc-54" value="Views,comments,Likes" style="rounded=0;whiteSpace=wrap;html=1;fontSize=18;" vertex="1" parent="1">
                    <mxGeometry x="250" y="890" width="190" height="20" as="geometry"/>
                </mxCell>
                <mxCell id="S6JoBW-ktSKsNF5E6PWc-55" value="1. 2. 3. 4. 5. 6... Last_Page" style="rounded=0;whiteSpace=wrap;html=1;fontSize=18;" vertex="1" parent="1">
                    <mxGeometry x="250" y="950" width="480" height="30" as="geometry"/>
                </mxCell>
                <mxCell id="S6JoBW-ktSKsNF5E6PWc-56" value="&lt;font style=&quot;font-size: 15px;&quot;&gt;login&lt;/font&gt;" style="ellipse;whiteSpace=wrap;html=1;fontSize=18;" vertex="1" parent="1">
                    <mxGeometry x="740" y="15" width="70" height="40" as="geometry"/>
                </mxCell>
                <mxCell id="S6JoBW-ktSKsNF5E6PWc-57" value="&lt;b&gt;&lt;strike&gt;&lt;font color=&quot;#969900&quot;&gt;LOGO&lt;/font&gt;&lt;/strike&gt;&lt;/b&gt;" style="html=1;whiteSpace=wrap;shape=isoCube2;backgroundOutline=1;isoAngle=15;fontSize=15;" vertex="1" parent="1">
                    <mxGeometry x="60" y="-10" width="80" height="90" as="geometry"/>
                </mxCell>
                <mxCell id="S6JoBW-ktSKsNF5E6PWc-60" value="&lt;font color=&quot;#99ccff&quot;&gt;&lt;br&gt;&lt;/font&gt;1.link to relevant/recent local news&lt;br&gt;2.link to relevant/recent local news&lt;br&gt;3.link to relevant/recent local news&lt;br&gt;4.link to relevant/recent local news&lt;br&gt;to read more click here" style="rounded=1;whiteSpace=wrap;html=1;fontSize=15;fontColor=#99CCFF;" vertex="1" parent="1">
                    <mxGeometry x="560" y="1030" width="270" height="120" as="geometry"/>
                </mxCell>
                <mxCell id="S6JoBW-ktSKsNF5E6PWc-62" value="contact us&lt;br&gt;projectmailID" style="rounded=0;whiteSpace=wrap;html=1;fontSize=15;fontColor=#FFFFFF;" vertex="1" parent="1">
                    <mxGeometry x="200" y="1070" width="120" height="60" as="geometry"/>
                </mxCell>
                <mxCell id="S6JoBW-ktSKsNF5E6PWc-63" value="Social media links" style="rounded=0;whiteSpace=wrap;html=1;fontSize=15;fontColor=#FFFFFF;" vertex="1" parent="1">
                    <mxGeometry x="340" y="1060" width="190" height="60" as="geometry"/>
                </mxCell>
                <mxCell id="S6JoBW-ktSKsNF5E6PWc-64" value="Home | Copyright@ | Privacy Policy |&amp;nbsp;&amp;nbsp;" style="rounded=1;whiteSpace=wrap;html=1;fontSize=15;fontColor=#FFFFFF;" vertex="1" parent="1">
                    <mxGeometry x="190" y="1160" width="620" height="80" as="geometry"/>
                </mxCell>
                <mxCell id="n6Y1PSwETiRatoU7woFj-1" value="link to 3 ongoing tournaments" style="rounded=0;whiteSpace=wrap;html=1;fontSize=15;fontColor=#FFFFFF;" vertex="1" parent="1">
                    <mxGeometry x="40" y="100" width="780" height="40" as="geometry"/>
                </mxCell>
            </root>
        </mxGraphModel>
    </diagram>
</mxfile>